<svg xmlns="http://www.w3.org/2000/svg" height="48" viewBox="0 96 960 960" width="48"><path d="M314.152 812.087h332.457v-69.761H314.152v69.761Zm0-173.565h332.696V569H314.152v69.522ZM220.63 993.196q-30.41 0-53.857-23.28-23.447-23.279-23.447-54.025V236.109q0-30.845 23.447-54.194 23.447-23.35 53.857-23.35h358.674l237.609 236.37v520.956q0 30.746-23.517 54.025-23.517 23.28-54.026 23.28H220.63Zm319.805-561.392V236.109H220.63v679.782h518.74V431.804H540.435ZM220.63 236.109v195.695-195.695V915.891 236.109Z" fill="currentColor"/></svg>